<?xml version="1.0" standalone="no"?>
<!DOCTYPE svg PUBLIC "-//W3C//DTD SVG 20010904//EN"
 "http://www.w3.org/TR/2001/REC-SVG-20010904/DTD/svg10.dtd">
<svg version="1.0" xmlns="http://www.w3.org/2000/svg"
 width="700.000000pt" height="700.000000pt" viewBox="0 0 700.000000 700.000000"
 preserveAspectRatio="xMidYMid meet">
<metadata>
Created by potrace 1.11, written by Peter Selinger 2001-2013
</metadata>
<g transform="translate(0.000000,700.000000) scale(0.100000,-0.100000)"
fill="#000000" stroke="none">
<path d="M3477 6317 c-9 -18 -33 -61 -54 -97 -21 -36 -76 -132 -123 -213 -47
-81 -93 -162 -104 -180 -32 -55 -283 -491 -434 -752 -79 -137 -161 -279 -182
-315 -53 -91 -301 -520 -462 -800 -75 -129 -269 -467 -433 -750 -163 -283
-304 -528 -313 -545 -9 -16 -22 -37 -28 -45 -6 -8 -24 -37 -39 -65 -25 -47
-130 -228 -483 -840 -168 -291 -210 -364 -269 -463 -24 -40 -43 -74 -43 -76 0
-2 -31 -57 -70 -122 -38 -66 -70 -124 -70 -129 0 -7 1051 -10 3134 -10 l3134
0 -16 30 c-8 17 -25 46 -37 65 -12 19 -36 60 -52 90 -17 30 -136 237 -265 460
-129 223 -270 466 -312 540 -43 74 -82 142 -87 150 -18 30 -102 176 -127 220
-14 25 -89 155 -167 290 -182 314 -517 894 -543 941 -11 19 -41 72 -68 118
-27 45 -58 99 -70 119 -20 37 -159 276 -269 467 -32 55 -76 130 -97 167 -21
37 -46 82 -57 100 -10 18 -67 116 -126 218 -59 102 -119 205 -133 230 -14 25
-63 109 -109 187 -45 79 -83 146 -83 149 0 3 -8 18 -19 32 -10 15 -29 47 -43
72 -14 25 -58 101 -98 170 -40 69 -83 143 -95 165 -13 22 -46 81 -75 130 -29
50 -60 104 -70 121 -69 120 -114 195 -120 199 -4 2 -14 -10 -23 -28z m153
-1264 c69 -119 138 -239 153 -267 16 -28 42 -72 58 -99 16 -26 29 -49 29 -52
0 -2 20 -37 44 -77 36 -59 317 -544 398 -688 34 -58 244 -423 267 -460 11 -19
28 -48 37 -65 9 -16 109 -190 222 -385 113 -195 212 -368 222 -385 9 -16 59
-102 110 -190 50 -88 106 -184 122 -214 17 -30 55 -94 84 -144 30 -49 54 -91
54 -93 0 -2 17 -32 38 -66 21 -35 41 -70 45 -78 4 -8 18 -33 32 -55 14 -22 28
-47 32 -55 4 -8 33 -59 65 -113 32 -54 58 -102 58 -106 0 -3 -990 -7 -2200 -7
-1560 1 -2200 4 -2200 11 0 6 4 15 9 20 7 8 186 315 294 505 10 19 61 107 112
195 190 328 238 411 263 455 14 25 33 59 42 75 10 17 84 145 165 285 276 477
298 515 323 559 14 25 38 68 55 95 16 28 38 65 47 81 180 313 257 447 277 477
12 21 23 40 23 43 0 3 11 22 24 43 19 30 337 580 435 752 88 156 127 220 131
220 3 0 61 -98 130 -217z"/>
</g>
</svg>
